# xmcd
#
# Track frame offsets: 
#        183
#        14275
#        26090
#        38113
#        48035
#        59788
#        72505
#        85248
#        96663
#        108840
#        121025
#        132338
#        144555
#        157453
#        171213
#        183468
#        195995
#        212288
#        226565
#        242733
#
# Disc length: 3514 seconds
#
# Revision: 2
# Processed by: cddbd v1.5.1PL0 Copyright (c) Steve Scherf et al.
# Submitted via: ExactAudioCopy v0.95a5
#
DISCID=150db814
DTITLE=Hank Williams, Jr. - The Best Of Hank Williams, Jr. Volume One 
DTITLE=(Roots And Branches)
DYEAR=1900
DGENRE=Country
TTITLE0=Standing In The Shadows
TTITLE1=Long Gone Lonesome Blues
TTITLE2=Cajun Baby
TTITLE3=Rock In My Shoe
TTITLE4=It's All Over But The Crying
TTITLE5=Nobody's Child
TTITLE6=I Was With Red Foley
TTITLE7=I Walked Out On Heaven
TTITLE8=I'd Rather Be Gone
TTITLE9=Eleven Roses
TTITLE10=Cold Cold Ground
TTITLE11=Hank
TTITLE12=Free Born Man
TTITLE13=The Kind Of Woman I Got
TTITLE14=There's A Devil In The Bottle
TTITLE15=Stoned At The Jukebox
TTITLE16=Living Proof
TTITLE17=Long Time Gone
TTITLE18=Losing You
TTITLE19=Can't You See
EXTD=
EXTT0=
EXTT1=
EXTT2=
EXTT3=
EXTT4=
EXTT5=
EXTT6=
EXTT7=
EXTT8=
EXTT9=
EXTT10=
EXTT11=
EXTT12=
EXTT13=
EXTT14=
EXTT15=
EXTT16=
EXTT17=
EXTT18=
EXTT19=
PLAYORDER=
